<?xml version="1.0" encoding="UTF-8"?>
<!DOCTYPE svg PUBLIC "-//W3C//DTD SVG 1.1//EN" "http://www.w3.org/Graphics/SVG/1.1/DTD/svg11.dtd">
<svg xmlns="http://www.w3.org/2000/svg" version="1.1" width="360px" height="360px" style="shape-rendering:geometricPrecision; text-rendering:geometricPrecision; image-rendering:optimizeQuality; fill-rule:evenodd; clip-rule:evenodd" xmlns:xlink="http://www.w3.org/1999/xlink">
<g><path style="opacity:0.999" fill="#fff" d="M 263.5,63.5 C 264.833,63.5 266.167,63.5 267.5,63.5C 273.793,65.8364 279.459,69.5031 284.5,74.5C 289.778,88.668 286.111,99.668 273.5,107.5C 270.171,107.215 267.171,107.882 264.5,109.5C 263.833,109.5 263.167,109.5 262.5,109.5C 260.478,107.307 257.811,106.307 254.5,106.5C 252.431,103.427 249.764,101.094 246.5,99.5C 246.5,99.1667 246.5,98.8333 246.5,98.5C 245.778,94.7136 244.445,91.3803 242.5,88.5C 242.5,87.1667 242.5,85.8333 242.5,84.5C 244.431,77.9359 248.097,72.4359 253.5,68C 257.198,66.8075 260.531,65.3075 263.5,63.5 Z M 270.5,79.5 C 268.372,78.3709 266.039,78.2042 263.5,79C 262.14,80.9376 262.473,82.6043 264.5,84C 270.118,84.9298 272.618,88.0964 272,93.5C 270.736,95.607 268.903,96.607 266.5,96.5C 266.5,97.8333 266.5,99.1667 266.5,100.5C 264.973,99.0686 263.306,97.7352 261.5,96.5C 259.645,96.728 258.812,96.0613 259,94.5C 260.299,94.0338 261.799,94.0338 263.5,94.5C 264.167,94.5 264.833,94.5 265.5,94.5C 268.244,93.9283 269.077,92.2617 268,89.5C 265.552,88.0268 263.052,86.6935 260.5,85.5C 260.167,85.5 259.833,85.5 259.5,85.5C 257.616,80.3854 259.283,77.0521 264.5,75.5C 264.281,74.325 264.614,73.325 265.5,72.5C 266.159,75.8237 268.159,77.1571 271.5,76.5C 271.737,77.791 271.404,78.791 270.5,79.5 Z"/></g>
<g><path style="opacity:0.506" fill="#fff" d="M 267.5,63.5 C 275.046,64.3994 280.713,68.0661 284.5,74.5C 279.459,69.5031 273.793,65.8364 267.5,63.5 Z"/></g>
<g><path style="opacity:0.792" fill="#fff" d="M 263.5,63.5 C 260.531,65.3075 257.198,66.8075 253.5,68C 248.097,72.4359 244.431,77.9359 242.5,84.5C 244.5,72.5 251.5,65.5 263.5,63.5 Z"/></g>
<g><path style="opacity:0.133" fill="#fff" d="M 264.5,75.5 C 259.283,77.0521 257.616,80.3854 259.5,85.5C 255.824,79.6925 257.491,76.3592 264.5,75.5 Z"/></g>
<g><path style="opacity:0.501" fill="#fff" d="M 270.5,79.5 C 261.18,79.754 261.18,81.5873 270.5,85C 274.202,87.5311 275.035,90.6978 273,94.5C 270.623,96.4095 268.457,98.4095 266.5,100.5C 266.5,99.1667 266.5,97.8333 266.5,96.5C 268.903,96.607 270.736,95.607 272,93.5C 272.618,88.0964 270.118,84.9298 264.5,84C 262.473,82.6043 262.14,80.9376 263.5,79C 266.039,78.2042 268.372,78.3709 270.5,79.5 Z"/></g>
<g><path style="opacity:0.524" fill="#fff" d="M 263.5,94.5 C 261.799,94.0338 260.299,94.0338 259,94.5C 258.812,96.0613 259.645,96.728 261.5,96.5C 261.631,97.2389 261.464,97.9056 261,98.5C 259.989,97.6634 258.822,97.33 257.5,97.5C 257.5,95.8333 257.5,94.1667 257.5,92.5C 259.898,92.2594 261.898,92.9261 263.5,94.5 Z"/></g>
<g><path style="opacity:0.341" fill="#fff" d="M 260.5,85.5 C 263.052,86.6935 265.552,88.0268 268,89.5C 269.077,92.2617 268.244,93.9283 265.5,94.5C 266.8,93.399 267.3,92.0657 267,90.5C 265.352,89.283 263.519,88.4497 261.5,88C 260.748,87.3292 260.414,86.4959 260.5,85.5 Z"/></g>
<g><path style="opacity:0.448" fill="#fff" d="M 242.5,88.5 C 244.445,91.3803 245.778,94.7136 246.5,98.5C 243.819,95.8082 242.486,92.4748 242.5,88.5 Z"/></g>
<g><path style="opacity:0.633" fill="#fff" d="M 284.5,74.5 C 290.943,85.8297 289.276,95.9964 279.5,105C 277.783,106.559 275.783,107.392 273.5,107.5C 286.111,99.668 289.778,88.668 284.5,74.5 Z"/></g>
<g><path style="opacity:0.627" fill="#fff" d="M 246.5,99.5 C 249.764,101.094 252.431,103.427 254.5,106.5C 251.236,104.906 248.569,102.573 246.5,99.5 Z"/></g>
<g><path style="opacity:0.778" fill="#fff" d="M 229.5,131.5 C 229.338,129.473 229.505,127.473 230,125.5C 233.782,119.62 236.116,113.287 237,106.5C 235.057,107.807 233.223,107.807 231.5,106.5C 234.096,105.735 236.763,105.401 239.5,105.5C 236.742,114.448 233.409,123.115 229.5,131.5 Z"/></g>
<g><path style="opacity:1" fill="#fff" d="M 230.5,106.5 C 230.833,106.5 231.167,106.5 231.5,106.5C 233.223,107.807 235.057,107.807 237,106.5C 236.116,113.287 233.782,119.62 230,125.5C 229.505,127.473 229.338,129.473 229.5,131.5C 226.208,136.587 223.541,142.087 221.5,148C 220.833,148.667 220.167,148.667 219.5,148C 218.295,146.624 216.962,145.458 215.5,144.5C 214.081,141.9 212.415,139.4 210.5,137C 207.649,136.68 205.649,137.847 204.5,140.5C 201.109,141.529 198.443,143.529 196.5,146.5C 194.5,146.5 193.5,147.5 193.5,149.5C 193.158,150.338 192.492,150.672 191.5,150.5C 189.596,150.738 188.262,151.738 187.5,153.5C 187.5,154.167 187.167,154.5 186.5,154.5C 184.596,154.738 183.262,155.738 182.5,157.5C 179.792,160.209 176.792,162.542 173.5,164.5C 170.553,165.644 167.887,167.311 165.5,169.5C 164.583,168.873 163.583,168.539 162.5,168.5C 152.332,163.587 142.666,157.92 133.5,151.5C 133.027,150.094 132.027,149.427 130.5,149.5C 128.766,148.438 127.099,148.438 125.5,149.5C 123.251,150.08 121.585,151.413 120.5,153.5C 116.518,155.817 113.185,158.817 110.5,162.5C 107.167,163.833 104.833,166.167 103.5,169.5C 98.9286,171.069 95.5953,174.069 93.5,178.5C 93.1667,178.5 92.8333,178.5 92.5,178.5C 88.5,180.5 85.5,183.5 83.5,187.5C 83.1667,187.5 82.8333,187.5 82.5,187.5C 80.9557,187.703 79.6223,188.37 78.5,189.5C 77.3777,188.37 76.0443,187.703 74.5,187.5C 73.8333,187.5 73.5,187.167 73.5,186.5C 74.0431,186.44 74.3764,186.107 74.5,185.5C 73.1666,184.38 72.6666,183.047 73,181.5C 77.0681,178.934 80.2348,175.601 82.5,171.5C 82.5,170.833 82.8333,170.5 83.5,170.5C 83.8966,171.525 84.5632,171.692 85.5,171C 88.4468,168.564 90.7801,165.731 92.5,162.5C 92.5,161.833 92.8333,161.5 93.5,161.5C 93.8966,162.525 94.5632,162.692 95.5,162C 101.702,156.928 107.368,151.428 112.5,145.5C 112.5,144.833 112.833,144.5 113.5,144.5C 116.5,143.5 118.5,141.5 119.5,138.5C 119.5,137.833 119.833,137.5 120.5,137.5C 120.435,137.938 120.601,138.272 121,138.5C 122.973,137.36 124.807,136.027 126.5,134.5C 138.877,142.354 151.544,149.688 164.5,156.5C 170.699,153.632 176.032,149.632 180.5,144.5C 188.391,139.616 195.724,133.949 202.5,127.5C 202.376,126.893 202.043,126.56 201.5,126.5C 198.941,121.927 195.941,117.594 192.5,113.5C 193.243,112.818 193.909,112.151 194.5,111.5C 196.5,111.167 198.5,110.833 200.5,110.5C 201.449,111.152 202.615,111.486 204,111.5C 208.325,111.428 212.158,110.428 215.5,108.5C 215.833,108.5 216.167,108.5 216.5,108.5C 217.449,109.152 218.615,109.486 220,109.5C 223.175,109.054 226.342,108.554 229.5,108C 230.056,107.617 230.389,107.117 230.5,106.5 Z"/></g>
<g><path style="opacity:0.494" fill="#fff" d="M 254.5,106.5 C 257.811,106.307 260.478,107.307 262.5,109.5C 259.514,109.097 256.848,108.097 254.5,106.5 Z"/></g>
<g><path style="opacity:0.525" fill="#fff" d="M 273.5,107.5 C 270.829,109.118 267.829,109.785 264.5,109.5C 267.171,107.882 270.171,107.215 273.5,107.5 Z"/></g>
<g><path style="opacity:0.91" fill="#fff" d="M 230.5,106.5 C 230.389,107.117 230.056,107.617 229.5,108C 226.342,108.554 223.175,109.054 220,109.5C 218.615,109.486 217.449,109.152 216.5,108.5C 221.131,107.671 225.798,107.004 230.5,106.5 Z"/></g>
<g><path style="opacity:0.75" fill="#fff" d="M 215.5,108.5 C 212.158,110.428 208.325,111.428 204,111.5C 202.615,111.486 201.449,111.152 200.5,110.5C 205.5,109.833 210.5,109.167 215.5,108.5 Z"/></g>
<g><path style="opacity:0.639" fill="#fff" d="M 194.5,111.5 C 193.909,112.151 193.243,112.818 192.5,113.5C 195.941,117.594 198.941,121.927 201.5,126.5C 196.642,122.318 192.976,117.318 190.5,111.5C 191.833,111.5 193.167,111.5 194.5,111.5 Z"/></g>
<g><path style="opacity:1" fill="#fff" d="M 254.5,123.5 C 261.833,123.5 269.167,123.5 276.5,123.5C 276.783,124.289 277.283,124.956 278,125.5C 278.5,172.832 278.667,220.165 278.5,267.5C 270.167,267.5 261.833,267.5 253.5,267.5C 252.883,267.389 252.383,267.056 252,266.5C 251.333,219.833 251.333,173.167 252,126.5C 253.045,125.627 253.878,124.627 254.5,123.5 Z"/></g>
<g><path style="opacity:0.537" fill="#fff" d="M 201.5,126.5 C 202.043,126.56 202.376,126.893 202.5,127.5C 195.724,133.949 188.391,139.616 180.5,144.5C 187.5,138.5 194.5,132.5 201.5,126.5 Z"/></g>
<g><path style="opacity:0.795" fill="#fff" d="M 276.5,123.5 C 278.411,123.574 279.578,124.574 280,126.5C 280.667,173.167 280.667,219.833 280,266.5C 279.722,267.416 279.222,268.082 278.5,268.5C 269.983,268.826 261.65,268.493 253.5,267.5C 261.833,267.5 270.167,267.5 278.5,267.5C 278.667,220.165 278.5,172.832 278,125.5C 277.283,124.956 276.783,124.289 276.5,123.5 Z"/></g>
<g><path style="opacity:0.145" fill="#fff" d="M 215.5,144.5 C 212.885,142.621 210.719,140.288 209,137.5C 207.729,138.883 206.229,139.883 204.5,140.5C 205.649,137.847 207.649,136.68 210.5,137C 212.415,139.4 214.081,141.9 215.5,144.5 Z"/></g>
<g><path style="opacity:0.769" fill="#fff" d="M 119.5,138.5 C 118.5,141.5 116.5,143.5 113.5,144.5C 115.167,142.167 117.167,140.167 119.5,138.5 Z"/></g>
<g><path style="opacity:0.157" fill="#fff" d="M 204.5,140.5 C 202.2,142.984 199.533,144.984 196.5,146.5C 198.443,143.529 201.109,141.529 204.5,140.5 Z"/></g>
<g><path style="opacity:0.106" fill="#fff" d="M 196.5,146.5 C 195.833,147.833 194.833,148.833 193.5,149.5C 193.5,147.5 194.5,146.5 196.5,146.5 Z"/></g>
<g><path style="opacity:0.465" fill="#fff" d="M 229.5,131.5 C 226.769,138.028 224.435,144.694 222.5,151.5C 219.211,150.211 216.878,147.878 215.5,144.5C 216.962,145.458 218.295,146.624 219.5,148C 220.167,148.667 220.833,148.667 221.5,148C 223.541,142.087 226.208,136.587 229.5,131.5 Z"/></g>
<g><path style="opacity:0.204" fill="#fff" d="M 130.5,149.5 C 132.027,149.427 133.027,150.094 133.5,151.5C 131.973,151.573 130.973,150.906 130.5,149.5 Z"/></g>
<g><path style="opacity:0.439" fill="#fff" d="M 180.5,144.5 C 176.032,149.632 170.699,153.632 164.5,156.5C 151.544,149.688 138.877,142.354 126.5,134.5C 124.807,136.027 122.973,137.36 121,138.5C 120.601,138.272 120.435,137.938 120.5,137.5C 122.47,134.687 125.137,133.52 128.5,134C 140.369,141.366 152.369,148.532 164.5,155.5C 169.869,151.782 175.203,148.116 180.5,144.5 Z"/></g>
<g><path style="opacity:0.02" fill="#fff" d="M 125.5,149.5 C 124.415,151.587 122.749,152.92 120.5,153.5C 121.585,151.413 123.251,150.08 125.5,149.5 Z"/></g>
<g><path style="opacity:0.071" fill="#fff" d="M 191.5,150.5 C 190.738,152.262 189.404,153.262 187.5,153.5C 188.262,151.738 189.596,150.738 191.5,150.5 Z"/></g>
<g><path style="opacity:0.812" fill="#fff" d="M 112.5,145.5 C 107.368,151.428 101.702,156.928 95.5,162C 94.5632,162.692 93.8966,162.525 93.5,161.5C 99.6791,155.921 106.012,150.588 112.5,145.5 Z"/></g>
<g><path style="opacity:0.17" fill="#fff" d="M 254.5,123.5 C 253.878,124.627 253.045,125.627 252,126.5C 251.333,173.167 251.333,219.833 252,266.5C 252.383,267.056 252.883,267.389 253.5,267.5C 261.65,268.493 269.983,268.826 278.5,268.5C 270.01,269.657 261.343,269.824 252.5,269C 252,268.5 251.5,268 251,267.5C 250.333,220.167 250.333,172.833 251,125.5C 251.816,124.177 252.983,123.511 254.5,123.5 Z"/></g>
<g><path style="opacity:0.043" fill="#fff" d="M 186.5,154.5 C 185.738,156.262 184.404,157.262 182.5,157.5C 183.262,155.738 184.596,154.738 186.5,154.5 Z"/></g>
<g><path style="opacity:0.051" fill="#fff" d="M 120.5,153.5 C 117.769,157.234 114.436,160.234 110.5,162.5C 113.185,158.817 116.518,155.817 120.5,153.5 Z"/></g>
<g><path style="opacity:1" fill="#fff" d="M 221.5,266.5 C 212.833,267.833 204.167,267.833 195.5,266.5C 195.5,232.5 195.5,198.5 195.5,164.5C 203.847,164.431 212.18,164.431 220.5,164.5C 221.5,198.493 221.833,232.493 221.5,266.5 Z"/></g>
<g><path style="opacity:0.605" fill="#fff" d="M 222.5,266.5 C 222.167,266.5 221.833,266.5 221.5,266.5C 221.833,232.493 221.5,198.493 220.5,164.5C 212.18,164.431 203.847,164.431 195.5,164.5C 195.5,198.5 195.5,232.5 195.5,266.5C 194.833,266.5 194.167,266.5 193.5,266.5C 193.333,232.498 193.5,198.498 194,164.5C 198.414,163.199 203.081,162.532 208,162.5C 212.5,162.667 217,162.833 221.5,163C 222,163.5 222.5,164 223,164.5C 223.831,198.669 223.664,232.669 222.5,266.5 Z"/></g>
<g><path style="opacity:0.651" fill="#fff" d="M 92.5,162.5 C 90.7801,165.731 88.4468,168.564 85.5,171C 84.5632,171.692 83.8966,171.525 83.5,170.5C 86.4744,167.862 89.4744,165.195 92.5,162.5 Z"/></g>
<g><path style="opacity:0.051" fill="#fff" d="M 110.5,162.5 C 108.5,165.167 106.167,167.5 103.5,169.5C 104.833,166.167 107.167,163.833 110.5,162.5 Z"/></g>
<g><path style="opacity:0.212" fill="#fff" d="M 173.5,164.5 C 170.93,167.941 167.597,169.775 163.5,170C 162.944,169.617 162.611,169.117 162.5,168.5C 163.583,168.539 164.583,168.873 165.5,169.5C 167.887,167.311 170.553,165.644 173.5,164.5 Z"/></g>
<g><path style="opacity:0.243" fill="#fff" d="M 103.5,169.5 C 100.192,172.471 96.859,175.471 93.5,178.5C 95.5953,174.069 98.9286,171.069 103.5,169.5 Z"/></g>
<g><path style="opacity:0.561" fill="#fff" d="M 82.5,171.5 C 80.2348,175.601 77.0681,178.934 73,181.5C 72.6666,183.047 73.1666,184.38 74.5,185.5C 74.3764,186.107 74.0431,186.44 73.5,186.5C 71.8912,185.102 71.0579,183.435 71,181.5C 75.0008,178.331 78.8341,174.997 82.5,171.5 Z"/></g>
<g><path style="opacity:0.024" fill="#fff" d="M 92.5,178.5 C 89.8333,181.833 86.8333,184.833 83.5,187.5C 85.5,183.5 88.5,180.5 92.5,178.5 Z"/></g>
<g><path style="opacity:0.051" fill="#fff" d="M 74.5,187.5 C 76.0443,187.703 77.3777,188.37 78.5,189.5C 79.6223,188.37 80.9557,187.703 82.5,187.5C 79.8333,192.833 77.1667,192.833 74.5,187.5 Z"/></g>
<g><path style="opacity:1" fill="#fff" d="M 163.5,193.5 C 164.49,218.092 164.823,242.759 164.5,267.5C 155.833,267.5 147.167,267.5 138.5,267.5C 137.337,243.67 137.17,219.67 138,195.5C 138.717,194.956 139.217,194.289 139.5,193.5C 147.5,192.167 155.5,192.167 163.5,193.5 Z"/></g>
<g><path style="opacity:0.255" fill="#fff" d="M 139.5,193.5 C 139.217,194.289 138.717,194.956 138,195.5C 137.17,219.67 137.337,243.67 138.5,267.5C 146.984,268.493 155.651,268.826 164.5,268.5C 155.432,269.828 146.265,269.828 137,268.5C 136.333,243.833 136.333,219.167 137,194.5C 137.671,193.748 138.504,193.414 139.5,193.5 Z"/></g>
<g><path style="opacity:0.714" fill="#fff" d="M 163.5,193.5 C 164.75,193.577 165.583,194.244 166,195.5C 166.667,219.5 166.667,243.5 166,267.5C 165.617,268.056 165.117,268.389 164.5,268.5C 155.651,268.826 146.984,268.493 138.5,267.5C 147.167,267.5 155.833,267.5 164.5,267.5C 164.823,242.759 164.49,218.092 163.5,193.5 Z"/></g>
<g><path style="opacity:0.536" fill="#fff" d="M 109.5,217.5 C 100.22,216.553 90.8864,216.22 81.5,216.5C 80.8333,216.833 80.1667,217.167 79.5,217.5C 83.951,216.173 88.7843,215.506 94,215.5C 98.8333,215.667 103.667,215.833 108.5,216C 109.056,216.383 109.389,216.883 109.5,217.5 Z"/></g>
<g><path style="opacity:0.999" fill="#fff" d="M 81.5,216.5 C 90.8864,216.22 100.22,216.553 109.5,217.5C 109.5,233.833 109.5,250.167 109.5,266.5C 108.033,263.742 107.367,264.075 107.5,267.5C 98.8333,267.5 90.1667,267.5 81.5,267.5C 81.5,250.5 81.5,233.5 81.5,216.5 Z"/></g>
<g><path style="opacity:0.328" fill="#fff" d="M 81.5,216.5 C 81.5,233.5 81.5,250.5 81.5,267.5C 80.8333,267.5 80.1667,267.5 79.5,267.5C 79.5,250.833 79.5,234.167 79.5,217.5C 80.1667,217.167 80.8333,216.833 81.5,216.5 Z"/></g>
<g><path style="opacity:0.885" fill="#fff" d="M 109.5,266.5 C 108.738,268.262 107.404,269.262 105.5,269.5C 97.5,268.833 89.5,268.167 81.5,267.5C 90.1667,267.5 98.8333,267.5 107.5,267.5C 107.367,264.075 108.033,263.742 109.5,266.5 Z"/></g>
<g><path style="opacity:0.888" fill="#fff" d="M 193.5,266.5 C 194.167,266.5 194.833,266.5 195.5,266.5C 204.167,267.833 212.833,267.833 221.5,266.5C 221.833,266.5 222.167,266.5 222.5,266.5C 222.586,267.496 222.252,268.329 221.5,269C 212.833,269.667 204.167,269.667 195.5,269C 194.619,268.292 193.953,267.458 193.5,266.5 Z"/></g>
<g><path style="opacity:0.157" fill="#fff" d="M 79.5,267.5 C 80.1667,267.5 80.8333,267.5 81.5,267.5C 89.5,268.167 97.5,268.833 105.5,269.5C 97.16,269.666 88.8267,269.5 80.5,269C 79.944,268.617 79.6107,268.117 79.5,267.5 Z"/></g>
</svg>
